<svg width="85" height="55" viewBox="0 0 85 55" fill="none" xmlns="http://www.w3.org/2000/svg">
<path d="M19.2805 14.4561C22.6339 9.66699 29.2346 8.5031 34.0237 11.8565V11.8565C38.8128 15.2098 39.9767 21.8106 36.6233 26.5997L23.3791 45.5144C20.0454 50.2755 13.4325 51.397 8.67141 48.0633V48.0633C3.91035 44.7296 2.70252 38.1319 6.03625 33.3708L19.2805 14.4561Z" fill="white"/>
<rect x="26.9966" y="3.49023" width="21.4814" height="4.93672" rx="2.46836" transform="rotate(35 26.9966 3.49023)" fill="white"/>
<rect x="37.5522" y="3.03125" width="5.35299" height="7.34124" transform="rotate(35 37.5522 3.03125)" fill="white"/>
<rect width="1.74558" height="5.23516" transform="matrix(0.550015 -0.835155 -0.835155 -0.550015 43.6782 11.498)" fill="white"/>
<path d="M44.5123 10.9566L71.7298 14.2728L55.2492 36.1858L44.5123 10.9566Z" fill="white"/>
<ellipse cx="60.9477" cy="34.3081" rx="6.04123" ry="6.34712" fill="white"/>
<ellipse cx="70.43" cy="22.1492" rx="4.81769" ry="5.0471" fill="white"/>
<ellipse cx="71.0834" cy="18.3257" rx="3.94175" ry="4.12945" fill="white"/>
<ellipse cx="62.171" cy="21.0784" rx="4.81769" ry="5.0471" fill="white"/>
<ellipse cx="70.43" cy="30.6377" rx="2.82944" ry="2.98238" fill="white"/>
<circle cx="66.1476" cy="25.2843" r="0.535299" fill="white"/>
<circle cx="67.1417" cy="27.1964" r="0.764713" fill="white"/>
<circle cx="68.977" cy="26.8901" r="0.61177" fill="white"/>
<circle cx="68.7475" cy="35.5315" r="1.30001" fill="white"/>
<circle cx="68.835" cy="39.7703" r="2.4143" fill="white"/>
<circle cx="73.6853" cy="42.4578" r="2.4143" fill="white"/>
<circle cx="76.4274" cy="35.0185" r="4.32608" fill="white"/>
<circle cx="64.0063" cy="44.8611" r="2.67649" fill="white"/>
<circle cx="79.4974" cy="26.0928" r="4.86138" fill="white"/>
<circle cx="78.6891" cy="17.6375" r="2.82944" fill="white"/>
<ellipse cx="71.1947" cy="46.9257" rx="1.14707" ry="1.22354" fill="white"/>
<ellipse cx="78.0773" cy="38.6671" rx="2.21767" ry="2.1412" fill="white"/>
<circle cx="77.6947" cy="34.8437" r="1.22354" fill="white"/>
<ellipse cx="62.8593" cy="28.1138" rx="3.21179" ry="3.36474" fill="white"/>
</svg>
